<svg xmlns="http://www.w3.org/2000/svg" width="80" height="129.945" viewBox="0 0 80 129.945"><defs><style>.a{fill:none;stroke:#ff5733;stroke-linecap:round;stroke-linejoin:round;stroke-miterlimit:10;stroke-width:5px;}.b{fill:#ff5733;}</style></defs><g transform="translate(-198.5 -183.07)"><path class="a" d="M201,222.4V249a11.172,11.172,0,0,0,1,4.8c2,4.8,7.4,15.4,18,22.2,14,9.1,23.1,14.8,39.6,0l12.3-11.1a12.727,12.727,0,0,0,4.1-9.3V217.5a14.22,14.22,0,0,0-.5-3.6c-2.4-7.7-13.2-34.7-47.3-26.9"/><path class="a" d="M218.9,275.3v21.4a7.687,7.687,0,0,1-3.8,6.6l-10.4,6"/><path class="a" d="M259.9,275.5V297a7.687,7.687,0,0,0,3.8,6.6l10.4,6"/><path class="a" d="M203,212.9s1.6-5.8,3.3-7.4"/><path class="a" d="M210.8,198s3.7-4.7,5.9-5.6"/><path class="a" d="M227.5,218.9s5.9-14.1,16.9-8.7c10.6,5.3,8.3,16.2-.7,21.5-9,5.2-5.7,14.8-5.7,14.8"/><circle class="b" cx="2.9" cy="2.9" r="2.9" transform="translate(236.6 252.9)"/></g></svg>