<svg xmlns="http://www.w3.org/2000/svg" width="136.23" height="101.199" viewBox="0 0 136.23 101.199"><defs><style>.a{fill:#ff5733;}.b,.c,.d{fill:none;stroke:#ff5733;stroke-miterlimit:10;}.c{stroke-width:4px;}.d{stroke-linecap:round;stroke-linejoin:round;stroke-width:5px;}</style></defs><g transform="translate(-175.5 -198.9)"><g transform="translate(212.272 224.175)"><path class="a" d="M211.444,222.4a1.828,1.828,0,0,1,1.844,2.061c-.108,2.494-.217,4.989-.325,7.375h0l-.325,7.158a3.689,3.689,0,0,1-.108,1.085,1.056,1.056,0,0,1-1.085.868.972.972,0,0,1-1.085-.759,1.375,1.375,0,0,1-.108-.651l-.651-14.967A1.925,1.925,0,0,1,211.444,222.4Z" transform="translate(-209.6 -222.4)"></path><g transform="translate(0 0)"><path class="b" d="M212.962,231.836h0c.108-2.494.217-4.989.325-7.375a1.855,1.855,0,1,0-3.687,0l.651,14.967a1.375,1.375,0,0,0,.108.651c.217.542.542.868,1.085.759a1.056,1.056,0,0,0,1.085-.868,3.689,3.689,0,0,0,.108-1.085C212.854,236.608,212.962,234.222,212.962,231.836Z" transform="translate(-209.6 -222.4)"></path></g></g><path class="c" d="M217.363,212.58l22.559,38.068a4.567,4.567,0,0,1-3.9,6.941l-44.249.542a4.675,4.675,0,0,1-4.121-6.941l21.691-38.5A4.593,4.593,0,0,1,217.363,212.58Z" transform="translate(0.765 0.75)"></path><circle class="a" cx="2.169" cy="2.169" r="2.169" transform="translate(211.946 246.734)"></circle><path class="d" d="M223.985,201.508H299.9a9.326,9.326,0,0,1,9.327,9.327v77.436A9.326,9.326,0,0,1,299.9,297.6H187.327A9.326,9.326,0,0,1,178,288.272V210.727a9.327,9.327,0,0,1,9.327-9.327h36.658Z" transform="translate(0 0)"></path><line class="d" x2="131.23" transform="translate(178 282.09)"></line><line class="d" x2="39.261" transform="translate(253.05 228.188)"></line><line class="d" x2="27.439" transform="translate(264.872 244.89)"></line></g></svg>